<svg width="1152" height="500" viewBox="0 0 1152 500" fill="none" xmlns="http://www.w3.org/2000/svg">
<rect width="1152" height="500" fill="#E7F7F7"/>
<rect x="222" y="182" width="31.1127" height="31.1127" transform="rotate(-45 222 182)" fill="#67D672"/>
<rect x="227.666" y="182.166" width="23.3345" height="23.3345" transform="rotate(-45 227.666 182.166)" fill="#FFFA85"/>
<rect x="233.111" y="182.111" width="15.5563" height="15.5563" transform="rotate(-45 233.111 182.111)" fill="#E7F7F7"/>
<rect x="828" y="188" width="31.1127" height="31.1127" transform="rotate(-45 828 188)" fill="#FFFA85"/>
<rect x="833.666" y="188.166" width="23.3345" height="23.3345" transform="rotate(-45 833.666 188.166)" fill="#67D672"/>
<rect x="839.111" y="188.111" width="15.5563" height="15.5563" transform="rotate(-45 839.111 188.111)" fill="#E7F7F7"/>
<rect x="104" y="384.142" width="20" height="20" transform="rotate(-45 104 384.142)" fill="#67D672"/>
<rect x="44" y="67.1421" width="30" height="30" transform="rotate(-45 44 67.1421)" fill="#272739"/>
<rect x="965" y="445.142" width="15" height="15" rx="7.5" transform="rotate(-45 965 445.142)" fill="#F53E6A"/>
<rect x="563" y="384.142" width="10" height="10" rx="5" transform="rotate(-45 563 384.142)" fill="#4A6FF0"/>
<rect x="1019" y="70.1421" width="25" height="25" transform="rotate(-45 1019 70.1421)" fill="#FFFA85"/>
</svg>
